G04*
G04 #@! TF.GenerationSoftware,Altium Limited,CircuitMaker,2.2.1 (2.2.1.6)*
G04*
G04 Layer_Physical_Order=1*
G04 Layer_Color=25308*
%FSLAX24Y24*%
%MOIN*%
G70*
G04*
G04 #@! TF.SameCoordinates,C416919A-7BC1-40E4-93D4-03DBD26D3EB5*
G04*
G04*
G04 #@! TF.FilePolarity,Positive*
G04*
G01*
G75*
%ADD12R,0.0394X0.0413*%
%ADD13R,0.2299X0.0951*%
%ADD14R,0.2299X0.0472*%
%ADD21C,0.0160*%
%ADD22C,0.0100*%
%ADD23C,0.0181*%
%ADD24C,0.0827*%
%ADD25C,0.0382*%
%ADD26C,0.0200*%
G36*
X2409Y2508D02*
X2748Y2273D01*
X2409Y2036D01*
Y2039D01*
Y2508D01*
D02*
G37*
G36*
X10791Y2534D02*
X10453Y2298D01*
X10791Y2061D01*
Y2064D01*
Y2534D01*
D02*
G37*
D12*
X7690Y1940D02*
D03*
Y1349D02*
D03*
X9450Y1945D02*
D03*
Y1355D02*
D03*
X6300Y3439D02*
D03*
Y2848D02*
D03*
X8560Y1349D02*
D03*
Y1940D02*
D03*
X7686Y2855D02*
D03*
Y3445D02*
D03*
X8561Y2850D02*
D03*
Y3441D02*
D03*
X9450Y2855D02*
D03*
Y3445D02*
D03*
X5425Y3439D02*
D03*
Y2848D02*
D03*
X4550Y2855D02*
D03*
Y3445D02*
D03*
X3675D02*
D03*
Y2855D02*
D03*
X4550Y1945D02*
D03*
Y1355D02*
D03*
X5430Y1945D02*
D03*
Y1355D02*
D03*
X6300Y1939D02*
D03*
Y1348D02*
D03*
X3672Y1351D02*
D03*
Y1941D02*
D03*
D13*
X1260Y4023D02*
D03*
Y577D02*
D03*
X11940Y4020D02*
D03*
Y575D02*
D03*
D14*
X1260Y2273D02*
D03*
X11940Y2298D02*
D03*
D21*
X7060Y910D02*
Y1820D01*
X6950Y800D02*
X7060Y910D01*
Y1820D02*
X7180Y1940D01*
X5863Y2377D02*
Y2630D01*
Y2125D02*
Y2377D01*
X4550Y1945D02*
X4982Y2377D01*
X5863D01*
X10200Y2550D02*
X10452Y2298D01*
X10200Y2550D02*
Y3275D01*
X10452Y2298D02*
X11940D01*
X9310Y3990D02*
X9450Y3850D01*
X8240Y3990D02*
X9310D01*
X9450Y3445D02*
Y3850D01*
X5436Y1939D02*
X5676D01*
X10005Y3470D02*
X10200Y3275D01*
X9525Y3470D02*
X10005D01*
X9450Y1945D02*
Y2855D01*
X8120Y3870D02*
X8240Y3990D01*
X8120Y3640D02*
Y3870D01*
Y3640D02*
X8319Y3441D01*
X7925Y3445D02*
X8120Y3640D01*
X7686Y3445D02*
X7925D01*
X8319Y3441D02*
X8561D01*
X7690Y1940D02*
X8130Y2380D01*
Y2640D01*
X8316Y2826D02*
X8537D01*
X7915Y2855D02*
X8130Y2640D01*
X7686Y2855D02*
X7915D01*
X8130Y2640D02*
X8316Y2826D01*
X7180Y1940D02*
X7690D01*
X5980Y800D02*
X6950D01*
X5860Y920D02*
X5980Y800D01*
X5860Y920D02*
Y1160D01*
X6046Y1346D02*
X6298D01*
X5665Y1355D02*
X5860Y1160D01*
X5430Y1355D02*
X5665D01*
X5860Y1160D02*
X6046Y1346D01*
X5676Y1939D02*
X5863Y2125D01*
X6049Y1939D01*
X5863Y2630D02*
X6081Y2848D01*
X6300D01*
X5644D02*
X5863Y2630D01*
X5425Y2848D02*
X5644D01*
X5725Y4000D02*
X5870Y3855D01*
Y3620D02*
Y3855D01*
X6056Y3434D02*
X6295D01*
X5870Y3620D02*
X6056Y3434D01*
X5684D02*
X5870Y3620D01*
X5430Y3434D02*
X5684D01*
X6049Y1939D02*
X6300D01*
X3800Y4000D02*
X5725D01*
X3675Y3875D02*
X3800Y4000D01*
X3675Y3445D02*
Y3875D01*
X3672Y1351D02*
X4546D01*
X3195Y3445D02*
X3675D01*
X3000Y3250D02*
X3195Y3445D01*
X3000Y2525D02*
Y3250D01*
X2748Y2273D02*
X3000Y2525D01*
X1260Y2273D02*
X2748D01*
X3640Y2865D02*
X4375D01*
D22*
X5429Y1945D02*
X5436Y1939D01*
X8560Y1349D02*
X8560Y1349D01*
X7690Y1349D02*
X8560D01*
X8537Y2826D02*
X8561Y2850D01*
X6298Y1346D02*
X6300Y1348D01*
X6295Y3434D02*
X6300Y3439D01*
X5425D02*
X5430Y3434D01*
X4546Y1351D02*
X4550Y1355D01*
X9450Y3445D02*
X9450Y3445D01*
X8560Y1349D02*
X8560Y1349D01*
X3585Y2865D02*
X3640D01*
Y2820D02*
X3645Y2825D01*
X1260Y577D02*
Y578D01*
Y577D02*
Y578D01*
X1290Y3983D02*
Y3983D01*
Y3983D02*
Y3983D01*
Y4003D01*
X1260Y578D02*
Y597D01*
X11940Y4000D02*
Y4020D01*
X11910Y595D02*
Y615D01*
Y615D01*
Y615D02*
Y615D01*
X11940Y4020D02*
Y4020D01*
Y4020D02*
Y4020D01*
D23*
X1260Y597D02*
X2764D01*
X1260Y4022D02*
X2764D01*
X10436Y575D02*
X11940D01*
X10436Y4000D02*
X11940D01*
D24*
X12050Y-600D02*
D03*
Y5200D02*
D03*
X1150Y-600D02*
D03*
Y5200D02*
D03*
D25*
X2764Y597D02*
D03*
X2764Y4022D02*
D03*
X10436Y575D02*
D03*
X10436Y4000D02*
D03*
D26*
X9450Y1355D02*
D03*
X8560Y1940D02*
D03*
X3672Y1941D02*
D03*
X4550Y3445D02*
D03*
M02*
