G04*
G04 #@! TF.GenerationSoftware,Altium Limited,CircuitMaker,2.2.1 (2.2.1.6)*
G04*
G04 Layer_Physical_Order=2*
G04 Layer_Color=16765976*
%FSLAX24Y24*%
%MOIN*%
G70*
G04*
G04 #@! TF.SameCoordinates,C416919A-7BC1-40E4-93D4-03DBD26D3EB5*
G04*
G04*
G04 #@! TF.FilePolarity,Positive*
G04*
G01*
G75*
%ADD25C,0.0382*%
%ADD26C,0.0200*%
G36*
X13130Y4486D02*
Y60D01*
X121D01*
X72Y63D01*
Y4535D01*
X13127D01*
X13130Y4486D01*
D02*
G37*
%LPC*%
G36*
X2814Y4310D02*
Y4072D01*
X3052D01*
X3035Y4135D01*
X2997Y4201D01*
X2943Y4255D01*
X2876Y4294D01*
X2814Y4310D01*
D02*
G37*
G36*
X2714D02*
X2652Y4294D01*
X2585Y4255D01*
X2531Y4201D01*
X2493Y4135D01*
X2476Y4072D01*
X2714D01*
Y4310D01*
D02*
G37*
G36*
X10486Y4288D02*
Y4050D01*
X10724D01*
X10707Y4113D01*
X10669Y4179D01*
X10615Y4233D01*
X10548Y4271D01*
X10486Y4288D01*
D02*
G37*
G36*
X10386D02*
X10324Y4271D01*
X10257Y4233D01*
X10203Y4179D01*
X10165Y4113D01*
X10148Y4050D01*
X10386D01*
Y4288D01*
D02*
G37*
G36*
X3052Y3972D02*
X2814D01*
Y3735D01*
X2876Y3751D01*
X2943Y3790D01*
X2997Y3844D01*
X3035Y3910D01*
X3052Y3972D01*
D02*
G37*
G36*
X2714D02*
X2476D01*
X2493Y3910D01*
X2531Y3844D01*
X2585Y3790D01*
X2652Y3751D01*
X2714Y3735D01*
Y3972D01*
D02*
G37*
G36*
X10724Y3950D02*
X10486D01*
Y3713D01*
X10548Y3729D01*
X10615Y3768D01*
X10669Y3822D01*
X10707Y3888D01*
X10724Y3950D01*
D02*
G37*
G36*
X10386D02*
X10148D01*
X10165Y3888D01*
X10203Y3822D01*
X10257Y3768D01*
X10324Y3729D01*
X10386Y3713D01*
Y3950D01*
D02*
G37*
G36*
X4600Y3641D02*
Y3495D01*
X4746D01*
X4720Y3559D01*
X4663Y3615D01*
X4600Y3641D01*
D02*
G37*
G36*
X4500D02*
X4437Y3615D01*
X4380Y3559D01*
X4354Y3495D01*
X4500D01*
Y3641D01*
D02*
G37*
G36*
X4746Y3395D02*
X4600D01*
Y3250D01*
X4663Y3276D01*
X4720Y3332D01*
X4746Y3395D01*
D02*
G37*
G36*
X4500D02*
X4354D01*
X4380Y3332D01*
X4437Y3276D01*
X4500Y3250D01*
Y3395D01*
D02*
G37*
G36*
X3722Y2137D02*
Y1991D01*
X3867D01*
X3841Y2055D01*
X3785Y2111D01*
X3722Y2137D01*
D02*
G37*
G36*
X3622D02*
X3558Y2111D01*
X3502Y2055D01*
X3476Y1991D01*
X3622D01*
Y2137D01*
D02*
G37*
G36*
X8610Y2136D02*
Y1990D01*
X8756D01*
X8730Y2053D01*
X8673Y2110D01*
X8610Y2136D01*
D02*
G37*
G36*
X8510D02*
X8447Y2110D01*
X8390Y2053D01*
X8364Y1990D01*
X8510D01*
Y2136D01*
D02*
G37*
G36*
X3867Y1891D02*
X3722D01*
Y1746D01*
X3785Y1772D01*
X3841Y1828D01*
X3867Y1891D01*
D02*
G37*
G36*
X3622D02*
X3476D01*
X3502Y1828D01*
X3558Y1772D01*
X3622Y1746D01*
Y1891D01*
D02*
G37*
G36*
X8756Y1890D02*
X8610D01*
Y1744D01*
X8673Y1770D01*
X8730Y1827D01*
X8756Y1890D01*
D02*
G37*
G36*
X8510D02*
X8364D01*
X8390Y1827D01*
X8447Y1770D01*
X8510Y1744D01*
Y1890D01*
D02*
G37*
G36*
X9500Y1550D02*
Y1405D01*
X9646D01*
X9620Y1468D01*
X9563Y1524D01*
X9500Y1550D01*
D02*
G37*
G36*
X9400D02*
X9337Y1524D01*
X9280Y1468D01*
X9254Y1405D01*
X9400D01*
Y1550D01*
D02*
G37*
G36*
X9646Y1305D02*
X9500D01*
Y1159D01*
X9563Y1185D01*
X9620Y1241D01*
X9646Y1305D01*
D02*
G37*
G36*
X9400D02*
X9254D01*
X9280Y1241D01*
X9337Y1185D01*
X9400Y1159D01*
Y1305D01*
D02*
G37*
G36*
X2814Y885D02*
Y647D01*
X3052D01*
X3035Y710D01*
X2997Y776D01*
X2943Y830D01*
X2876Y868D01*
X2814Y885D01*
D02*
G37*
G36*
X2714D02*
X2652Y868D01*
X2585Y830D01*
X2531Y776D01*
X2493Y710D01*
X2476Y647D01*
X2714D01*
Y885D01*
D02*
G37*
G36*
X10486Y863D02*
Y625D01*
X10724D01*
X10707Y687D01*
X10669Y754D01*
X10615Y808D01*
X10548Y846D01*
X10486Y863D01*
D02*
G37*
G36*
X10386D02*
X10324Y846D01*
X10257Y808D01*
X10203Y754D01*
X10165Y687D01*
X10148Y625D01*
X10386D01*
Y863D01*
D02*
G37*
G36*
X3052Y547D02*
X2814D01*
Y309D01*
X2876Y326D01*
X2943Y364D01*
X2997Y419D01*
X3035Y485D01*
X3052Y547D01*
D02*
G37*
G36*
X2714D02*
X2476D01*
X2493Y485D01*
X2531Y419D01*
X2585Y364D01*
X2652Y326D01*
X2714Y309D01*
Y547D01*
D02*
G37*
G36*
X10724Y525D02*
X10486D01*
Y287D01*
X10548Y304D01*
X10615Y342D01*
X10669Y396D01*
X10707Y463D01*
X10724Y525D01*
D02*
G37*
G36*
X10386D02*
X10148D01*
X10165Y463D01*
X10203Y396D01*
X10257Y342D01*
X10324Y304D01*
X10386Y287D01*
Y525D01*
D02*
G37*
%LPD*%
D25*
X2764Y597D02*
D03*
X2764Y4022D02*
D03*
X10436Y575D02*
D03*
X10436Y4000D02*
D03*
D26*
X9450Y1355D02*
D03*
X8560Y1940D02*
D03*
X3672Y1941D02*
D03*
X4550Y3445D02*
D03*
M02*
