G04*
G04 #@! TF.GenerationSoftware,Altium Limited,CircuitMaker,2.2.1 (2.2.1.6)*
G04*
G04 Layer_Color=20142*
%FSLAX24Y24*%
%MOIN*%
G70*
G04*
G04 #@! TF.SameCoordinates,C416919A-7BC1-40E4-93D4-03DBD26D3EB5*
G04*
G04*
G04 #@! TF.FilePolarity,Negative*
G04*
G01*
G75*
%ADD15R,0.0474X0.0493*%
%ADD16R,0.2379X0.1031*%
%ADD17R,0.2379X0.0552*%
%ADD18C,0.0907*%
%ADD19C,0.0462*%
%ADD20C,0.0280*%
D15*
X7690Y1940D02*
D03*
Y1349D02*
D03*
X9450Y1945D02*
D03*
Y1355D02*
D03*
X6300Y3439D02*
D03*
Y2848D02*
D03*
X8560Y1349D02*
D03*
Y1940D02*
D03*
X7686Y2855D02*
D03*
Y3445D02*
D03*
X8561Y2850D02*
D03*
Y3441D02*
D03*
X9450Y2855D02*
D03*
Y3445D02*
D03*
X5425Y3439D02*
D03*
Y2848D02*
D03*
X4550Y2855D02*
D03*
Y3445D02*
D03*
X3675D02*
D03*
Y2855D02*
D03*
X4550Y1945D02*
D03*
Y1355D02*
D03*
X5430Y1945D02*
D03*
Y1355D02*
D03*
X6300Y1939D02*
D03*
Y1348D02*
D03*
X3672Y1351D02*
D03*
Y1941D02*
D03*
D16*
X1260Y4023D02*
D03*
Y577D02*
D03*
X11940Y4020D02*
D03*
Y575D02*
D03*
D17*
X1260Y2273D02*
D03*
X11940Y2298D02*
D03*
D18*
X12050Y-600D02*
D03*
Y5200D02*
D03*
X1150Y-600D02*
D03*
Y5200D02*
D03*
D19*
X2764Y597D02*
D03*
X2764Y4022D02*
D03*
X10436Y575D02*
D03*
X10436Y4000D02*
D03*
D20*
X9450Y1355D02*
D03*
X8560Y1940D02*
D03*
X3672Y1941D02*
D03*
X4550Y3445D02*
D03*
M02*
