G04*
G04 #@! TF.GenerationSoftware,Altium Limited,CircuitMaker,2.2.1 (2.2.1.6)*
G04*
G04 Layer_Color=20142*
%FSLAX24Y24*%
%MOIN*%
G70*
G04*
G04 #@! TF.SameCoordinates,D28BDA84-9723-43EF-B55C-3147937A363A*
G04*
G04*
G04 #@! TF.FilePolarity,Negative*
G04*
G01*
G75*
%ADD16R,0.2379X0.0552*%
%ADD17R,0.2379X0.1031*%
%ADD18R,0.0474X0.0493*%
%ADD19R,0.0493X0.0474*%
%ADD20C,0.0462*%
%ADD21C,0.0280*%
D16*
X1260Y2273D02*
D03*
X12400Y2300D02*
D03*
D17*
X1260Y577D02*
D03*
Y4023D02*
D03*
X12400Y577D02*
D03*
Y4023D02*
D03*
D18*
X10310Y3295D02*
D03*
Y2705D02*
D03*
Y1305D02*
D03*
Y1895D02*
D03*
X8010Y2705D02*
D03*
Y3295D02*
D03*
X5710Y1305D02*
D03*
Y1895D02*
D03*
Y2705D02*
D03*
Y3295D02*
D03*
X3410Y2705D02*
D03*
Y3295D02*
D03*
X8010Y1305D02*
D03*
Y1895D02*
D03*
X3410Y1305D02*
D03*
Y1895D02*
D03*
D19*
X9455Y1300D02*
D03*
X8865D02*
D03*
X9451Y3300D02*
D03*
X8860D02*
D03*
X7151Y1300D02*
D03*
X6560D02*
D03*
X7151Y3300D02*
D03*
X6560D02*
D03*
X4855Y1300D02*
D03*
X4265D02*
D03*
X4851Y3300D02*
D03*
X4260D02*
D03*
D20*
X2764Y4022D02*
D03*
X2764Y597D02*
D03*
X10896Y4003D02*
D03*
X10896Y578D02*
D03*
D21*
X10310Y1305D02*
D03*
X8010D02*
D03*
X5710D02*
D03*
X3410D02*
D03*
M02*
