G04*
G04 #@! TF.GenerationSoftware,Altium Limited,CircuitMaker,2.2.1 (2.2.1.6)*
G04*
G04 Layer_Color=13813960*
%FSLAX24Y24*%
%MOIN*%
G70*
G04*
G04 #@! TF.SameCoordinates,C416919A-7BC1-40E4-93D4-03DBD26D3EB5*
G04*
G04*
G04 #@! TF.FilePolarity,Positive*
G04*
G01*
G75*
G36*
X6149Y2966D02*
X6158D01*
Y2962D01*
X6166D01*
Y2957D01*
X6175D01*
Y2953D01*
X6183D01*
Y2949D01*
X6188D01*
Y2944D01*
X6192D01*
Y2940D01*
X6200D01*
Y2936D01*
X6205D01*
Y2932D01*
X6213D01*
Y2927D01*
X6217D01*
Y2923D01*
X6222D01*
Y2915D01*
X6226D01*
Y2910D01*
X6230D01*
Y2902D01*
X6235D01*
Y2898D01*
X6239D01*
Y2893D01*
X6243D01*
Y2885D01*
X6247D01*
Y2881D01*
X6252D01*
Y2876D01*
X6256D01*
Y2872D01*
X6260D01*
Y2864D01*
X6264D01*
Y2859D01*
X6269D01*
Y2855D01*
X6273D01*
Y2851D01*
X6277D01*
Y2846D01*
X6281D01*
Y2842D01*
X6290D01*
Y2838D01*
X6303D01*
Y2842D01*
X6307D01*
Y2846D01*
X6311D01*
Y2855D01*
X6316D01*
Y2859D01*
X6320D01*
Y2864D01*
X6324D01*
Y2868D01*
X6328D01*
Y2876D01*
X6333D01*
Y2881D01*
X6337D01*
Y2889D01*
X6341D01*
Y2893D01*
X6345D01*
Y2902D01*
X6350D01*
Y2906D01*
X6354D01*
Y2915D01*
X6358D01*
Y2919D01*
X6362D01*
Y2923D01*
X6367D01*
Y2927D01*
X6371D01*
Y2932D01*
X6375D01*
Y2936D01*
X6379D01*
Y2940D01*
X6388D01*
Y2944D01*
X6396D01*
Y2949D01*
X6405D01*
Y2953D01*
X6414D01*
Y2957D01*
X6426D01*
Y2962D01*
X6465D01*
Y2957D01*
X6482D01*
Y2953D01*
X6490D01*
Y2949D01*
X6495D01*
Y2944D01*
X6503D01*
Y2936D01*
X6507D01*
Y2932D01*
X6512D01*
Y2923D01*
X6516D01*
Y2876D01*
X6512D01*
Y2864D01*
X6507D01*
Y2855D01*
X6503D01*
Y2851D01*
X6499D01*
Y2842D01*
X6495D01*
Y2838D01*
X6490D01*
Y2834D01*
X6486D01*
Y2829D01*
X6482D01*
Y2825D01*
X6477D01*
Y2821D01*
X6473D01*
Y2817D01*
X6469D01*
Y2812D01*
X6465D01*
Y2808D01*
X6456D01*
Y2804D01*
X6452D01*
Y2800D01*
X6448D01*
Y2795D01*
X6443D01*
Y2791D01*
X6439D01*
Y2787D01*
X6435D01*
Y2783D01*
X6431D01*
Y2778D01*
X6426D01*
Y2774D01*
X6422D01*
Y2770D01*
X6418D01*
Y2765D01*
X6414D01*
Y2757D01*
X6409D01*
Y2753D01*
X6405D01*
Y2748D01*
X6401D01*
Y2740D01*
X6396D01*
Y2736D01*
X6392D01*
Y2727D01*
X6388D01*
Y2723D01*
X6384D01*
Y2714D01*
X6379D01*
Y2706D01*
X6375D01*
Y2693D01*
X6371D01*
Y2676D01*
X6367D01*
Y2655D01*
X6362D01*
Y2604D01*
X6367D01*
Y2586D01*
X6371D01*
Y2574D01*
X6375D01*
Y2565D01*
X6379D01*
Y2557D01*
X6384D01*
Y2552D01*
X6388D01*
Y2548D01*
X6392D01*
Y2544D01*
X6396D01*
Y2535D01*
X6405D01*
Y2531D01*
X6409D01*
Y2527D01*
X6414D01*
Y2523D01*
X6422D01*
Y2518D01*
X6435D01*
Y2514D01*
X6482D01*
Y2518D01*
X6490D01*
Y2523D01*
X6499D01*
Y2527D01*
X6507D01*
Y2531D01*
X6516D01*
Y2535D01*
X6520D01*
Y2540D01*
X6529D01*
Y2544D01*
X6533D01*
Y2548D01*
X6537D01*
Y2552D01*
X6541D01*
Y2557D01*
X6550D01*
Y2561D01*
X6554D01*
Y2565D01*
X6558D01*
Y2569D01*
X6563D01*
Y2574D01*
X6567D01*
Y2582D01*
X6571D01*
Y2586D01*
X6575D01*
Y2591D01*
X6580D01*
Y2595D01*
X6584D01*
Y2599D01*
X6588D01*
Y2604D01*
X6593D01*
Y2612D01*
X6597D01*
Y2616D01*
X6601D01*
Y2621D01*
X6605D01*
Y2625D01*
X6610D01*
Y2629D01*
X6614D01*
Y2633D01*
X6618D01*
Y2642D01*
X6622D01*
Y2646D01*
X6627D01*
Y2650D01*
X6631D01*
Y2655D01*
X6635D01*
Y2659D01*
X6639D01*
Y2663D01*
X6644D01*
Y2667D01*
X6648D01*
Y2676D01*
X6652D01*
Y2680D01*
X6656D01*
Y2685D01*
X6661D01*
Y2689D01*
X6665D01*
Y2693D01*
X6669D01*
Y2697D01*
X6673D01*
Y2702D01*
X6678D01*
Y2706D01*
X6682D01*
Y2710D01*
X6686D01*
Y2714D01*
X6691D01*
Y2719D01*
X6695D01*
Y2723D01*
X6699D01*
Y2727D01*
X6703D01*
Y2731D01*
X6708D01*
Y2736D01*
X6712D01*
Y2740D01*
X6716D01*
Y2744D01*
X6720D01*
Y2748D01*
X6725D01*
Y2753D01*
X6733D01*
Y2757D01*
X6737D01*
Y2761D01*
X6742D01*
Y2765D01*
X6750D01*
Y2770D01*
X6754D01*
Y2774D01*
X6759D01*
Y2778D01*
X6767D01*
Y2783D01*
X6772D01*
Y2787D01*
X6780D01*
Y2791D01*
X6784D01*
Y2795D01*
X6793D01*
Y2800D01*
X6801D01*
Y2804D01*
X6810D01*
Y2808D01*
X6814D01*
Y2812D01*
X6823D01*
Y2817D01*
X6831D01*
Y2821D01*
X6840D01*
Y2825D01*
X6848D01*
Y2829D01*
X6857D01*
Y2834D01*
X6870D01*
Y2838D01*
X6878D01*
Y2842D01*
X6891D01*
Y2846D01*
X6904D01*
Y2851D01*
X6916D01*
Y2855D01*
X6938D01*
Y2859D01*
X7014D01*
Y2855D01*
X7057D01*
Y2851D01*
X7083D01*
Y2846D01*
X7095D01*
Y2842D01*
X7112D01*
Y2838D01*
X7121D01*
Y2834D01*
X7134D01*
Y2829D01*
X7142D01*
Y2825D01*
X7151D01*
Y2821D01*
X7159D01*
Y2817D01*
X7164D01*
Y2812D01*
X7172D01*
Y2808D01*
X7176D01*
Y2804D01*
X7185D01*
Y2800D01*
X7193D01*
Y2795D01*
X7198D01*
Y2791D01*
X7206D01*
Y2787D01*
X7210D01*
Y2783D01*
X7219D01*
Y2778D01*
X7228D01*
Y2774D01*
X7232D01*
Y2770D01*
X7240D01*
Y2765D01*
X7245D01*
Y2761D01*
X7253D01*
Y2757D01*
X7257D01*
Y2753D01*
X7266D01*
Y2748D01*
X7270D01*
Y2744D01*
X7274D01*
Y2740D01*
X7279D01*
Y2736D01*
X7283D01*
Y2731D01*
X7287D01*
Y2727D01*
X7291D01*
Y2723D01*
X7296D01*
Y2714D01*
X7300D01*
Y2710D01*
X7304D01*
Y2702D01*
X7308D01*
Y2693D01*
X7313D01*
Y2685D01*
X7317D01*
Y2676D01*
X7321D01*
Y2663D01*
X7326D01*
Y2650D01*
X7330D01*
Y2638D01*
X7334D01*
Y2621D01*
X7338D01*
Y2599D01*
X7343D01*
Y2574D01*
X7347D01*
Y2484D01*
X7343D01*
Y2442D01*
X7338D01*
Y2403D01*
X7334D01*
Y2378D01*
X7330D01*
Y2356D01*
X7326D01*
Y2335D01*
X7321D01*
Y2318D01*
X7317D01*
Y2297D01*
X7313D01*
Y2280D01*
X7308D01*
Y2267D01*
X7304D01*
Y2258D01*
X7300D01*
Y2250D01*
X7296D01*
Y2241D01*
X7291D01*
Y2233D01*
X7287D01*
Y2224D01*
X7283D01*
Y2220D01*
X7279D01*
Y2211D01*
X7274D01*
Y2207D01*
X7270D01*
Y2199D01*
X7266D01*
Y2194D01*
X7262D01*
Y2190D01*
X7257D01*
Y2186D01*
X7253D01*
Y2182D01*
X7249D01*
Y2177D01*
X7245D01*
Y2173D01*
X7240D01*
Y2169D01*
X7236D01*
Y2165D01*
X7228D01*
Y2160D01*
X7223D01*
Y2156D01*
X7219D01*
Y2152D01*
X7210D01*
Y2148D01*
X7206D01*
Y2143D01*
X7202D01*
Y2139D01*
X7193D01*
Y2135D01*
X7189D01*
Y2130D01*
X7181D01*
Y2126D01*
X7172D01*
Y2122D01*
X7168D01*
Y2118D01*
X7159D01*
Y2113D01*
X7147D01*
Y2109D01*
X7138D01*
Y2105D01*
X7125D01*
Y2101D01*
X7112D01*
Y2096D01*
X7100D01*
Y2092D01*
X7087D01*
Y2088D01*
X7066D01*
Y2084D01*
X7040D01*
Y2079D01*
X7006D01*
Y2075D01*
X6972D01*
Y2071D01*
X6933D01*
Y2067D01*
X6895D01*
Y2062D01*
X6801D01*
Y2067D01*
X6733D01*
Y2071D01*
X6691D01*
Y2075D01*
X6656D01*
Y2079D01*
X6635D01*
Y2084D01*
X6618D01*
Y2088D01*
X6605D01*
Y2092D01*
X6588D01*
Y2096D01*
X6575D01*
Y2101D01*
X6563D01*
Y2105D01*
X6550D01*
Y2109D01*
X6537D01*
Y2113D01*
X6524D01*
Y2118D01*
X6516D01*
Y2122D01*
X6503D01*
Y2126D01*
X6495D01*
Y2130D01*
X6482D01*
Y2135D01*
X6473D01*
Y2139D01*
X6465D01*
Y2143D01*
X6452D01*
Y2148D01*
X6443D01*
Y2152D01*
X6435D01*
Y2156D01*
X6426D01*
Y2160D01*
X6418D01*
Y2165D01*
X6409D01*
Y2169D01*
X6401D01*
Y2173D01*
X6396D01*
Y2177D01*
X6388D01*
Y2182D01*
X6379D01*
Y2186D01*
X6375D01*
Y2190D01*
X6367D01*
Y2194D01*
X6362D01*
Y2199D01*
X6354D01*
Y2203D01*
X6350D01*
Y2207D01*
X6341D01*
Y2211D01*
X6337D01*
Y2216D01*
X6333D01*
Y2220D01*
X6324D01*
Y2224D01*
X6320D01*
Y2229D01*
X6316D01*
Y2233D01*
X6307D01*
Y2237D01*
X6303D01*
Y2241D01*
X6298D01*
Y2246D01*
X6294D01*
Y2250D01*
X6290D01*
Y2254D01*
X6286D01*
Y2258D01*
X6277D01*
Y2267D01*
X6273D01*
Y2271D01*
X6269D01*
Y2275D01*
X6264D01*
Y2280D01*
X6260D01*
Y2284D01*
X6256D01*
Y2288D01*
X6252D01*
Y2297D01*
X6247D01*
Y2305D01*
X6243D01*
Y2309D01*
X6239D01*
Y2318D01*
X6235D01*
Y2327D01*
X6230D01*
Y2339D01*
X6226D01*
Y2348D01*
X6222D01*
Y2361D01*
X6217D01*
Y2373D01*
X6213D01*
Y2390D01*
X6209D01*
Y2412D01*
X6205D01*
Y2437D01*
X6200D01*
Y2548D01*
X6205D01*
Y2591D01*
X6209D01*
Y2659D01*
X6213D01*
Y2667D01*
X6209D01*
Y2697D01*
X6205D01*
Y2706D01*
X6200D01*
Y2714D01*
X6196D01*
Y2723D01*
X6192D01*
Y2727D01*
X6188D01*
Y2731D01*
X6183D01*
Y2740D01*
X6179D01*
Y2744D01*
X6175D01*
Y2748D01*
X6171D01*
Y2753D01*
X6166D01*
Y2757D01*
X6162D01*
Y2765D01*
X6158D01*
Y2770D01*
X6154D01*
Y2774D01*
X6149D01*
Y2778D01*
X6145D01*
Y2783D01*
X6141D01*
Y2787D01*
X6137D01*
Y2791D01*
X6132D01*
Y2795D01*
X6128D01*
Y2800D01*
X6124D01*
Y2808D01*
X6119D01*
Y2812D01*
X6115D01*
Y2817D01*
X6111D01*
Y2821D01*
X6107D01*
Y2825D01*
X6102D01*
Y2829D01*
X6098D01*
Y2834D01*
X6094D01*
Y2838D01*
X6090D01*
Y2846D01*
X6085D01*
Y2855D01*
X6081D01*
Y2864D01*
X6077D01*
Y2919D01*
X6081D01*
Y2932D01*
X6085D01*
Y2940D01*
X6090D01*
Y2949D01*
X6094D01*
Y2953D01*
X6098D01*
Y2957D01*
X6107D01*
Y2962D01*
X6115D01*
Y2966D01*
X6124D01*
Y2970D01*
X6149D01*
Y2966D01*
D02*
G37*
%LPC*%
G36*
X6145Y2962D02*
X6128D01*
Y2957D01*
X6115D01*
Y2953D01*
X6107D01*
Y2949D01*
X6102D01*
Y2944D01*
X6098D01*
Y2936D01*
X6094D01*
Y2927D01*
X6090D01*
Y2910D01*
X6085D01*
Y2868D01*
X6090D01*
Y2855D01*
X6094D01*
Y2846D01*
X6098D01*
Y2842D01*
X6102D01*
Y2838D01*
X6107D01*
Y2834D01*
X6111D01*
Y2829D01*
X6115D01*
Y2825D01*
X6119D01*
Y2821D01*
X6124D01*
Y2817D01*
X6128D01*
Y2812D01*
X6132D01*
Y2804D01*
X6137D01*
Y2800D01*
X6141D01*
Y2795D01*
X6145D01*
Y2791D01*
X6149D01*
Y2787D01*
X6154D01*
Y2783D01*
X6158D01*
Y2778D01*
X6162D01*
Y2774D01*
X6166D01*
Y2765D01*
X6171D01*
Y2761D01*
X6175D01*
Y2757D01*
X6179D01*
Y2753D01*
X6183D01*
Y2748D01*
X6188D01*
Y2740D01*
X6192D01*
Y2736D01*
X6196D01*
Y2731D01*
X6200D01*
Y2723D01*
X6205D01*
Y2719D01*
X6209D01*
Y2710D01*
X6213D01*
Y2702D01*
X6217D01*
Y2680D01*
X6222D01*
Y2655D01*
X6217D01*
Y2586D01*
X6213D01*
Y2544D01*
X6209D01*
Y2442D01*
X6213D01*
Y2412D01*
X6217D01*
Y2395D01*
X6222D01*
Y2378D01*
X6226D01*
Y2365D01*
X6230D01*
Y2352D01*
X6235D01*
Y2339D01*
X6239D01*
Y2331D01*
X6243D01*
Y2322D01*
X6247D01*
Y2314D01*
X6252D01*
Y2305D01*
X6256D01*
Y2301D01*
X6260D01*
Y2292D01*
X6264D01*
Y2288D01*
X6269D01*
Y2284D01*
X6273D01*
Y2280D01*
X6277D01*
Y2275D01*
X6281D01*
Y2267D01*
X6290D01*
Y2263D01*
X6294D01*
Y2258D01*
X6298D01*
Y2254D01*
X6303D01*
Y2250D01*
X6307D01*
Y2246D01*
X6311D01*
Y2241D01*
X6320D01*
Y2237D01*
X6324D01*
Y2233D01*
X6328D01*
Y2229D01*
X6333D01*
Y2224D01*
X6341D01*
Y2220D01*
X6345D01*
Y2216D01*
X6354D01*
Y2211D01*
X6358D01*
Y2207D01*
X6362D01*
Y2203D01*
X6371D01*
Y2199D01*
X6379D01*
Y2194D01*
X6384D01*
Y2190D01*
X6392D01*
Y2186D01*
X6401D01*
Y2182D01*
X6405D01*
Y2177D01*
X6414D01*
Y2173D01*
X6422D01*
Y2169D01*
X6431D01*
Y2165D01*
X6439D01*
Y2160D01*
X6448D01*
Y2156D01*
X6456D01*
Y2152D01*
X6465D01*
Y2148D01*
X6477D01*
Y2143D01*
X6486D01*
Y2139D01*
X6495D01*
Y2135D01*
X6507D01*
Y2130D01*
X6516D01*
Y2126D01*
X6529D01*
Y2122D01*
X6541D01*
Y2118D01*
X6554D01*
Y2113D01*
X6567D01*
Y2109D01*
X6580D01*
Y2105D01*
X6593D01*
Y2101D01*
X6605D01*
Y2096D01*
X6622D01*
Y2092D01*
X6639D01*
Y2088D01*
X6661D01*
Y2084D01*
X6691D01*
Y2079D01*
X6737D01*
Y2075D01*
X6810D01*
Y2071D01*
X6887D01*
Y2075D01*
X6929D01*
Y2079D01*
X6968D01*
Y2084D01*
X7002D01*
Y2088D01*
X7040D01*
Y2092D01*
X7061D01*
Y2096D01*
X7083D01*
Y2101D01*
X7095D01*
Y2105D01*
X7112D01*
Y2109D01*
X7125D01*
Y2113D01*
X7134D01*
Y2118D01*
X7147D01*
Y2122D01*
X7155D01*
Y2126D01*
X7164D01*
Y2130D01*
X7172D01*
Y2135D01*
X7176D01*
Y2139D01*
X7185D01*
Y2143D01*
X7189D01*
Y2148D01*
X7198D01*
Y2152D01*
X7202D01*
Y2156D01*
X7210D01*
Y2160D01*
X7215D01*
Y2165D01*
X7219D01*
Y2169D01*
X7228D01*
Y2173D01*
X7232D01*
Y2177D01*
X7236D01*
Y2182D01*
X7240D01*
Y2186D01*
X7245D01*
Y2190D01*
X7249D01*
Y2194D01*
X7253D01*
Y2199D01*
X7257D01*
Y2203D01*
X7262D01*
Y2207D01*
X7266D01*
Y2216D01*
X7270D01*
Y2224D01*
X7274D01*
Y2229D01*
X7279D01*
Y2237D01*
X7283D01*
Y2246D01*
X7287D01*
Y2250D01*
X7291D01*
Y2258D01*
X7296D01*
Y2271D01*
X7300D01*
Y2284D01*
X7304D01*
Y2301D01*
X7308D01*
Y2322D01*
X7313D01*
Y2339D01*
X7317D01*
Y2361D01*
X7321D01*
Y2382D01*
X7326D01*
Y2407D01*
X7330D01*
Y2446D01*
X7334D01*
Y2497D01*
X7338D01*
Y2565D01*
X7334D01*
Y2595D01*
X7330D01*
Y2616D01*
X7326D01*
Y2633D01*
X7321D01*
Y2650D01*
X7317D01*
Y2663D01*
X7313D01*
Y2672D01*
X7308D01*
Y2680D01*
X7304D01*
Y2689D01*
X7300D01*
Y2697D01*
X7296D01*
Y2706D01*
X7291D01*
Y2710D01*
X7287D01*
Y2719D01*
X7283D01*
Y2723D01*
X7279D01*
Y2727D01*
X7274D01*
Y2731D01*
X7270D01*
Y2736D01*
X7266D01*
Y2740D01*
X7262D01*
Y2744D01*
X7253D01*
Y2748D01*
X7249D01*
Y2753D01*
X7245D01*
Y2757D01*
X7236D01*
Y2761D01*
X7228D01*
Y2765D01*
X7223D01*
Y2770D01*
X7215D01*
Y2774D01*
X7210D01*
Y2778D01*
X7202D01*
Y2783D01*
X7193D01*
Y2787D01*
X7189D01*
Y2791D01*
X7181D01*
Y2795D01*
X7176D01*
Y2800D01*
X7168D01*
Y2804D01*
X7159D01*
Y2808D01*
X7155D01*
Y2812D01*
X7147D01*
Y2817D01*
X7138D01*
Y2821D01*
X7129D01*
Y2825D01*
X7121D01*
Y2829D01*
X7108D01*
Y2834D01*
X7091D01*
Y2838D01*
X7078D01*
Y2842D01*
X7053D01*
Y2846D01*
X7006D01*
Y2851D01*
X6942D01*
Y2846D01*
X6921D01*
Y2842D01*
X6904D01*
Y2838D01*
X6891D01*
Y2834D01*
X6882D01*
Y2829D01*
X6870D01*
Y2825D01*
X6861D01*
Y2821D01*
X6852D01*
Y2817D01*
X6844D01*
Y2812D01*
X6835D01*
Y2808D01*
X6827D01*
Y2804D01*
X6818D01*
Y2800D01*
X6810D01*
Y2795D01*
X6801D01*
Y2791D01*
X6797D01*
Y2787D01*
X6789D01*
Y2783D01*
X6784D01*
Y2778D01*
X6776D01*
Y2774D01*
X6772D01*
Y2770D01*
X6763D01*
Y2765D01*
X6759D01*
Y2761D01*
X6750D01*
Y2757D01*
X6746D01*
Y2753D01*
X6742D01*
Y2748D01*
X6737D01*
Y2744D01*
X6729D01*
Y2740D01*
X6725D01*
Y2736D01*
X6720D01*
Y2731D01*
X6716D01*
Y2727D01*
X6712D01*
Y2723D01*
X6708D01*
Y2719D01*
X6703D01*
Y2714D01*
X6699D01*
Y2710D01*
X6695D01*
Y2706D01*
X6691D01*
Y2702D01*
X6686D01*
Y2697D01*
X6682D01*
Y2693D01*
X6678D01*
Y2689D01*
X6673D01*
Y2685D01*
X6669D01*
Y2680D01*
X6665D01*
Y2676D01*
X6661D01*
Y2672D01*
X6656D01*
Y2663D01*
X6652D01*
Y2659D01*
X6648D01*
Y2655D01*
X6644D01*
Y2650D01*
X6639D01*
Y2646D01*
X6635D01*
Y2642D01*
X6631D01*
Y2638D01*
X6627D01*
Y2629D01*
X6622D01*
Y2625D01*
X6618D01*
Y2621D01*
X6614D01*
Y2616D01*
X6610D01*
Y2612D01*
X6605D01*
Y2608D01*
X6601D01*
Y2599D01*
X6597D01*
Y2595D01*
X6593D01*
Y2591D01*
X6588D01*
Y2586D01*
X6584D01*
Y2582D01*
X6580D01*
Y2578D01*
X6575D01*
Y2574D01*
X6571D01*
Y2565D01*
X6567D01*
Y2561D01*
X6563D01*
Y2557D01*
X6558D01*
Y2552D01*
X6550D01*
Y2548D01*
X6546D01*
Y2544D01*
X6541D01*
Y2540D01*
X6537D01*
Y2535D01*
X6529D01*
Y2531D01*
X6524D01*
Y2527D01*
X6516D01*
Y2523D01*
X6512D01*
Y2518D01*
X6503D01*
Y2514D01*
X6495D01*
Y2510D01*
X6482D01*
Y2506D01*
X6431D01*
Y2510D01*
X6418D01*
Y2514D01*
X6409D01*
Y2518D01*
X6405D01*
Y2523D01*
X6401D01*
Y2527D01*
X6392D01*
Y2531D01*
X6388D01*
Y2540D01*
X6384D01*
Y2544D01*
X6379D01*
Y2548D01*
X6375D01*
Y2557D01*
X6371D01*
Y2561D01*
X6367D01*
Y2569D01*
X6362D01*
Y2582D01*
X6358D01*
Y2599D01*
X6354D01*
Y2659D01*
X6358D01*
Y2680D01*
X6362D01*
Y2697D01*
X6367D01*
Y2706D01*
X6371D01*
Y2719D01*
X6375D01*
Y2727D01*
X6379D01*
Y2731D01*
X6384D01*
Y2740D01*
X6388D01*
Y2744D01*
X6392D01*
Y2753D01*
X6396D01*
Y2757D01*
X6401D01*
Y2761D01*
X6405D01*
Y2765D01*
X6409D01*
Y2774D01*
X6414D01*
Y2778D01*
X6418D01*
Y2783D01*
X6422D01*
Y2787D01*
X6426D01*
Y2791D01*
X6431D01*
Y2795D01*
X6435D01*
Y2800D01*
X6439D01*
Y2804D01*
X6443D01*
Y2808D01*
X6448D01*
Y2812D01*
X6456D01*
Y2817D01*
X6460D01*
Y2821D01*
X6465D01*
Y2825D01*
X6469D01*
Y2829D01*
X6473D01*
Y2834D01*
X6477D01*
Y2838D01*
X6482D01*
Y2842D01*
X6486D01*
Y2846D01*
X6490D01*
Y2855D01*
X6495D01*
Y2859D01*
X6499D01*
Y2868D01*
X6503D01*
Y2881D01*
X6507D01*
Y2919D01*
X6503D01*
Y2927D01*
X6499D01*
Y2932D01*
X6495D01*
Y2936D01*
X6490D01*
Y2940D01*
X6486D01*
Y2944D01*
X6477D01*
Y2949D01*
X6465D01*
Y2953D01*
X6426D01*
Y2949D01*
X6418D01*
Y2944D01*
X6409D01*
Y2940D01*
X6401D01*
Y2936D01*
X6392D01*
Y2932D01*
X6384D01*
Y2927D01*
X6379D01*
Y2923D01*
X6375D01*
Y2919D01*
X6371D01*
Y2915D01*
X6367D01*
Y2910D01*
X6362D01*
Y2902D01*
X6358D01*
Y2898D01*
X6354D01*
Y2889D01*
X6350D01*
Y2885D01*
X6345D01*
Y2876D01*
X6341D01*
Y2872D01*
X6337D01*
Y2868D01*
X6333D01*
Y2859D01*
X6328D01*
Y2855D01*
X6324D01*
Y2851D01*
X6320D01*
Y2842D01*
X6316D01*
Y2838D01*
X6311D01*
Y2834D01*
X6307D01*
Y2829D01*
X6303D01*
Y2825D01*
X6294D01*
Y2829D01*
X6286D01*
Y2834D01*
X6277D01*
Y2838D01*
X6273D01*
Y2842D01*
X6269D01*
Y2846D01*
X6264D01*
Y2851D01*
X6260D01*
Y2855D01*
X6256D01*
Y2859D01*
X6252D01*
Y2868D01*
X6247D01*
Y2872D01*
X6243D01*
Y2876D01*
X6239D01*
Y2885D01*
X6235D01*
Y2889D01*
X6230D01*
Y2893D01*
X6226D01*
Y2902D01*
X6222D01*
Y2906D01*
X6217D01*
Y2910D01*
X6213D01*
Y2919D01*
X6209D01*
Y2923D01*
X6205D01*
Y2927D01*
X6196D01*
Y2932D01*
X6188D01*
Y2936D01*
X6183D01*
Y2940D01*
X6179D01*
Y2944D01*
X6171D01*
Y2949D01*
X6166D01*
Y2953D01*
X6154D01*
Y2957D01*
X6145D01*
Y2962D01*
D02*
G37*
%LPD*%
M02*
