G04*
G04 #@! TF.GenerationSoftware,Altium Limited,CircuitMaker,2.2.1 (2.2.1.6)*
G04*
G04 Layer_Color=15132400*
%FSLAX24Y24*%
%MOIN*%
G70*
G04*
G04 #@! TF.SameCoordinates,D28BDA84-9723-43EF-B55C-3147937A363A*
G04*
G04*
G04 #@! TF.FilePolarity,Positive*
G04*
G01*
G75*
%ADD10C,0.0039*%
%ADD11C,0.0050*%
D10*
X10113Y3581D02*
G03*
X10034Y3502I0J-79D01*
G01*
X10586Y3502D02*
G03*
X10507Y3581I-79J-0D01*
G01*
X10507Y2419D02*
G03*
X10586Y2498I-0J79D01*
G01*
X10034Y2498D02*
G03*
X10113Y2419I79J0D01*
G01*
X10034Y1098D02*
G03*
X10113Y1019I79J0D01*
G01*
X10507D02*
G03*
X10586Y1098I-0J79D01*
G01*
Y2102D02*
G03*
X10507Y2181I-79J-0D01*
G01*
X10113Y2181D02*
G03*
X10034Y2102I0J-79D01*
G01*
X9662Y1024D02*
G03*
X9741Y1103I-0J79D01*
G01*
Y1497D02*
G03*
X9662Y1576I-79J-0D01*
G01*
X8658D02*
G03*
X8579Y1497I0J-79D01*
G01*
X8579Y1103D02*
G03*
X8658Y1024I79J0D01*
G01*
X9657Y3024D02*
G03*
X9736Y3103I-0J79D01*
G01*
Y3497D02*
G03*
X9657Y3576I-79J-0D01*
G01*
X8653D02*
G03*
X8575Y3497I0J-79D01*
G01*
X8575Y3103D02*
G03*
X8653Y3024I79J0D01*
G01*
X7734Y2498D02*
G03*
X7813Y2419I79J0D01*
G01*
X8207D02*
G03*
X8286Y2498I-0J79D01*
G01*
Y3502D02*
G03*
X8207Y3581I-79J-0D01*
G01*
X7813Y3581D02*
G03*
X7734Y3502I0J-79D01*
G01*
X7357Y1024D02*
G03*
X7436Y1103I-0J79D01*
G01*
Y1497D02*
G03*
X7357Y1576I-79J-0D01*
G01*
X6353D02*
G03*
X6275Y1497I0J-79D01*
G01*
X6275Y1103D02*
G03*
X6353Y1024I79J0D01*
G01*
X7357Y3024D02*
G03*
X7436Y3103I-0J79D01*
G01*
Y3497D02*
G03*
X7357Y3576I-79J-0D01*
G01*
X6353D02*
G03*
X6275Y3497I0J-79D01*
G01*
X6275Y3103D02*
G03*
X6353Y3024I79J0D01*
G01*
X5434Y1098D02*
G03*
X5513Y1019I79J0D01*
G01*
X5907D02*
G03*
X5986Y1098I-0J79D01*
G01*
Y2102D02*
G03*
X5907Y2181I-79J-0D01*
G01*
X5513Y2181D02*
G03*
X5434Y2102I0J-79D01*
G01*
Y2498D02*
G03*
X5513Y2419I79J0D01*
G01*
X5907D02*
G03*
X5986Y2498I-0J79D01*
G01*
Y3502D02*
G03*
X5907Y3581I-79J-0D01*
G01*
X5513Y3581D02*
G03*
X5434Y3502I0J-79D01*
G01*
X5062Y1024D02*
G03*
X5141Y1103I-0J79D01*
G01*
Y1497D02*
G03*
X5062Y1576I-79J-0D01*
G01*
X4058D02*
G03*
X3979Y1497I0J-79D01*
G01*
X3979Y1103D02*
G03*
X4058Y1024I79J0D01*
G01*
X5057Y3024D02*
G03*
X5136Y3103I-0J79D01*
G01*
Y3497D02*
G03*
X5057Y3576I-79J-0D01*
G01*
X4053D02*
G03*
X3975Y3497I0J-79D01*
G01*
X3975Y3103D02*
G03*
X4053Y3024I79J0D01*
G01*
X3134Y2498D02*
G03*
X3213Y2419I79J0D01*
G01*
X3607D02*
G03*
X3686Y2498I-0J79D01*
G01*
Y3502D02*
G03*
X3607Y3581I-79J-0D01*
G01*
X3213Y3581D02*
G03*
X3134Y3502I0J-79D01*
G01*
X7734Y1098D02*
G03*
X7813Y1019I79J0D01*
G01*
X8207D02*
G03*
X8286Y1098I-0J79D01*
G01*
Y2102D02*
G03*
X8207Y2181I-79J-0D01*
G01*
X7813Y2181D02*
G03*
X7734Y2102I0J-79D01*
G01*
X3134Y1098D02*
G03*
X3213Y1019I79J0D01*
G01*
X3607D02*
G03*
X3686Y1098I-0J79D01*
G01*
Y2102D02*
G03*
X3607Y2181I-79J-0D01*
G01*
X3213Y2181D02*
G03*
X3134Y2102I0J-79D01*
G01*
X10113Y3581D02*
X10507D01*
X10034Y3069D02*
Y3502D01*
X10586Y3069D02*
Y3502D01*
X10034Y2655D02*
Y2931D01*
X10586Y2498D02*
Y2931D01*
X10359Y2419D02*
X10507D01*
X10034Y2498D02*
Y2655D01*
X10113Y2419D02*
X10359D01*
X10113Y1019D02*
X10359D01*
X10034Y1098D02*
Y1256D01*
X10359Y1019D02*
X10507D01*
X10586Y1098D02*
Y1531D01*
X10034Y1256D02*
Y1531D01*
X10586Y1669D02*
Y2102D01*
X10034Y1669D02*
Y2102D01*
X10113Y2181D02*
X10507Y2181D01*
X9741Y1103D02*
Y1349D01*
X9504Y1024D02*
X9662D01*
X9741Y1349D02*
Y1497D01*
X9229Y1576D02*
X9662D01*
X9229Y1024D02*
X9504D01*
X8658Y1576D02*
X9091D01*
X8658Y1024D02*
X9091D01*
X8579Y1103D02*
Y1497D01*
X9736Y3103D02*
Y3349D01*
X9500Y3024D02*
X9657D01*
X9736Y3349D02*
Y3497D01*
X9224Y3576D02*
X9657D01*
X9224Y3024D02*
X9500D01*
X8653Y3576D02*
X9086D01*
X8653Y3024D02*
X9086D01*
X8575Y3103D02*
Y3497D01*
X7813Y2419D02*
X8059D01*
X7734Y2498D02*
Y2656D01*
X8059Y2419D02*
X8207D01*
X8286Y2498D02*
Y2931D01*
X7734Y2656D02*
Y2931D01*
X8286Y3069D02*
Y3502D01*
X7734Y3069D02*
Y3502D01*
X7813Y3581D02*
X8207D01*
X7436Y1103D02*
Y1349D01*
X7200Y1024D02*
X7357D01*
X7436Y1349D02*
Y1497D01*
X6924Y1576D02*
X7357D01*
X6924Y1024D02*
X7200D01*
X6353Y1576D02*
X6786D01*
X6353Y1024D02*
X6786D01*
X6275Y1103D02*
Y1497D01*
X7436Y3103D02*
Y3349D01*
X7200Y3024D02*
X7357D01*
X7436Y3349D02*
Y3497D01*
X6924Y3576D02*
X7357D01*
X6924Y3024D02*
X7200D01*
X6353Y3576D02*
X6786D01*
X6353Y3024D02*
X6786D01*
X6275Y3103D02*
Y3497D01*
X5513Y1019D02*
X5759D01*
X5434Y1098D02*
Y1256D01*
X5759Y1019D02*
X5907D01*
X5986Y1098D02*
Y1531D01*
X5434Y1256D02*
Y1531D01*
X5986Y1669D02*
Y2102D01*
X5434Y1669D02*
Y2102D01*
X5513Y2181D02*
X5907Y2181D01*
X5513Y2419D02*
X5759D01*
X5434Y2498D02*
Y2656D01*
X5759Y2419D02*
X5907D01*
X5986Y2498D02*
Y2931D01*
X5434Y2656D02*
Y2931D01*
X5986Y3069D02*
Y3502D01*
X5434Y3069D02*
Y3502D01*
X5513Y3581D02*
X5907D01*
X5141Y1103D02*
Y1349D01*
X4904Y1024D02*
X5062D01*
X5141Y1349D02*
Y1497D01*
X4629Y1576D02*
X5062D01*
X4629Y1024D02*
X4904D01*
X4058Y1576D02*
X4491D01*
X4058Y1024D02*
X4491D01*
X3979Y1497D02*
X3979Y1103D01*
X5136Y3103D02*
Y3349D01*
X4900Y3024D02*
X5057D01*
X5136Y3349D02*
Y3497D01*
X4624Y3576D02*
X5057D01*
X4624Y3024D02*
X4900D01*
X4053Y3576D02*
X4486D01*
X4053Y3024D02*
X4486D01*
X3975Y3497D02*
X3975Y3103D01*
X3213Y2419D02*
X3459D01*
X3134Y2498D02*
Y2656D01*
X3459Y2419D02*
X3607D01*
X3686Y2498D02*
Y2931D01*
X3134Y2656D02*
Y2931D01*
X3686Y3069D02*
Y3502D01*
X3134Y3069D02*
Y3502D01*
X3213Y3581D02*
X3607D01*
X7813Y1019D02*
X8059D01*
X7734Y1098D02*
Y1256D01*
X8059Y1019D02*
X8207D01*
X8286Y1098D02*
Y1531D01*
X7734Y1256D02*
Y1531D01*
X8286Y1669D02*
Y2102D01*
X7734Y1669D02*
Y2102D01*
X7813Y2181D02*
X8207Y2181D01*
X3213Y1019D02*
X3459D01*
X3134Y1098D02*
Y1256D01*
X3459Y1019D02*
X3607D01*
X3686Y1098D02*
Y1531D01*
X3134Y1256D02*
Y1531D01*
X3686Y1669D02*
Y2102D01*
X3134Y1669D02*
Y2102D01*
X3213Y2181D02*
X3607Y2181D01*
D11*
X900Y2980D02*
Y2880D01*
X950Y2830D01*
X1000Y2880D01*
Y2980D01*
X1050Y2955D02*
X1075Y2980D01*
X1125D01*
X1150Y2955D01*
Y2855D01*
X1125Y2830D01*
X1075D01*
X1050Y2855D01*
Y2955D01*
X1200Y2830D02*
Y2980D01*
X1275D01*
X1300Y2955D01*
Y2905D01*
X1275Y2880D01*
X1200D01*
X1350Y2955D02*
X1375Y2980D01*
X1425D01*
X1450Y2955D01*
Y2855D01*
X1425Y2830D01*
X1375D01*
X1350Y2855D01*
Y2955D01*
X3350Y457D02*
Y257D01*
X3450D01*
X3483Y290D01*
Y323D01*
X3450Y357D01*
X3350D01*
X3450D01*
X3483Y390D01*
Y423D01*
X3450Y457D01*
X3350D01*
X3550Y390D02*
Y257D01*
Y323D01*
X3583Y357D01*
X3617Y390D01*
X3650D01*
X3783Y257D02*
X3850D01*
X3883Y290D01*
Y357D01*
X3850Y390D01*
X3783D01*
X3750Y357D01*
Y290D01*
X3783Y257D01*
X3983Y390D02*
X4050D01*
X4083Y357D01*
Y257D01*
X3983D01*
X3950Y290D01*
X3983Y323D01*
X4083D01*
X4283Y457D02*
Y257D01*
X4183D01*
X4150Y290D01*
Y357D01*
X4183Y390D01*
X4283D01*
X4483D02*
X4383D01*
X4350Y357D01*
Y290D01*
X4383Y257D01*
X4483D01*
X4583Y390D02*
X4650D01*
X4683Y357D01*
Y257D01*
X4583D01*
X4550Y290D01*
X4583Y323D01*
X4683D01*
X4750Y257D02*
X4850D01*
X4883Y290D01*
X4850Y323D01*
X4783D01*
X4750Y357D01*
X4783Y390D01*
X4883D01*
X4983Y423D02*
Y390D01*
X4949D01*
X5016D01*
X4983D01*
Y290D01*
X5016Y257D01*
X5449Y457D02*
X5316D01*
Y357D01*
X5383D01*
X5316D01*
Y257D01*
X5516D02*
Y457D01*
X5583Y390D01*
X5649Y457D01*
Y257D01*
X5916Y457D02*
Y257D01*
X6016D01*
X6049Y290D01*
Y323D01*
X6016Y357D01*
X5916D01*
X6016D01*
X6049Y390D01*
Y423D01*
X6016Y457D01*
X5916D01*
X6149Y390D02*
X6216D01*
X6249Y357D01*
Y257D01*
X6149D01*
X6116Y290D01*
X6149Y323D01*
X6249D01*
X6316Y257D02*
Y390D01*
X6416D01*
X6449Y357D01*
Y257D01*
X6649Y457D02*
Y257D01*
X6549D01*
X6516Y290D01*
Y357D01*
X6549Y390D01*
X6649D01*
X6716Y257D02*
X6816D01*
X6849Y290D01*
X6816Y323D01*
X6749D01*
X6716Y357D01*
X6749Y390D01*
X6849D01*
X6949Y423D02*
Y390D01*
X6916D01*
X6982D01*
X6949D01*
Y290D01*
X6982Y257D01*
X7115D02*
X7182D01*
X7215Y290D01*
Y357D01*
X7182Y390D01*
X7115D01*
X7082Y357D01*
Y290D01*
X7115Y257D01*
X7282Y190D02*
Y390D01*
X7382D01*
X7415Y357D01*
Y290D01*
X7382Y257D01*
X7282D01*
X7682Y457D02*
X7815D01*
Y423D01*
X7682Y290D01*
Y257D01*
X7882Y457D02*
X8015D01*
Y423D01*
X7882Y290D01*
Y257D01*
X8082D02*
Y457D01*
X8148Y390D01*
X8215Y457D01*
Y257D01*
X8282Y457D02*
Y257D01*
Y357D01*
X8415D01*
Y457D01*
Y257D01*
X8482Y390D02*
X8615D01*
X8482Y257D01*
X8615D01*
X8882Y357D02*
X9015D01*
X9281Y257D02*
X9348D01*
X9315D01*
Y457D01*
X9281Y423D01*
X9448Y257D02*
X9515D01*
X9481D01*
Y457D01*
X9448Y423D01*
X9615D02*
X9648Y457D01*
X9715D01*
X9748Y423D01*
Y390D01*
X9715Y357D01*
X9748Y323D01*
Y290D01*
X9715Y257D01*
X9648D01*
X9615Y290D01*
Y323D01*
X9648Y357D01*
X9615Y390D01*
Y423D01*
X9648Y357D02*
X9715D01*
X9815Y257D02*
Y457D01*
X9881Y390D01*
X9948Y457D01*
Y257D01*
X10014Y457D02*
Y257D01*
Y357D01*
X10148D01*
Y457D01*
Y257D01*
X10214Y390D02*
X10348D01*
X10214Y257D01*
X10348D01*
M02*
