G04*
G04 #@! TF.GenerationSoftware,Altium Limited,CircuitMaker,2.2.1 (2.2.1.6)*
G04*
G04 Layer_Color=16740166*
%FSLAX24Y24*%
%MOIN*%
G70*
G04*
G04 #@! TF.SameCoordinates,C416919A-7BC1-40E4-93D4-03DBD26D3EB5*
G04*
G04*
G04 #@! TF.FilePolarity,Positive*
G04*
G01*
G75*
%ADD22C,0.0100*%
D22*
X13044Y-39D02*
G03*
X12814Y-432I179J-368D01*
G01*
X11284Y-439D02*
G03*
X10891Y1I-416J24D01*
G01*
X11284Y-439D02*
G03*
X12814Y-432I766J-161D01*
G01*
X13044Y-39D02*
G03*
X13199Y125I-5J159D01*
G01*
Y4475D02*
G03*
X13044Y4639I-159J5D01*
G01*
X12814Y5032D02*
G03*
X11284Y5039I-764J168D01*
G01*
X10891Y4599D02*
G03*
X11284Y5039I-24J416D01*
G01*
X12814Y5032D02*
G03*
X13044Y4639I409J-24D01*
G01*
X386Y-432D02*
G03*
X1916Y-439I764J-168D01*
G01*
X2308Y1D02*
G03*
X1916Y-439I24J-416D01*
G01*
X386Y-432D02*
G03*
X156Y-39I-409J24D01*
G01*
X1Y125D02*
G03*
X156Y-39I159J-5D01*
G01*
Y4639D02*
G03*
X1Y4475I5J-159D01*
G01*
X156Y4639D02*
G03*
X386Y5032I-179J368D01*
G01*
X1916Y5039D02*
G03*
X2308Y4599I416J-24D01*
G01*
X1916Y5039D02*
G03*
X386Y5032I-766J161D01*
G01*
X10769Y1D02*
X10891D01*
X10450D02*
X10769D01*
X10550Y4599D02*
X10891D01*
X13200Y125D02*
Y4500D01*
X2308Y4599D02*
X10550D01*
X2296Y1D02*
X10450D01*
X1Y125D02*
Y4475D01*
M02*
